<svg xmlns="http://www.w3.org/2000/svg" width="1000" height="900"><g transform="translate(490, 0)"><g transform="translate(300, 20)"><rect width="100" height="50" x="0" y="0" fill="#EFF0F3"/><text x="25" y="30" font-family="Verdana">Do(6)</text></g><line x1="350" x2="-10" y1="80" y2="140" stroke="#000"/><line x1="350" x2="350" y1="80" y2="160" stroke="#000"/><line x1="350" x2="470" y1="80" y2="140" stroke="#000"/><g transform="translate(420, 150)"><rect width="100" height="50" x="0" y="0" fill="#EFF0F3"/><text x="15" y="30" font-family="Verdana">printf(n)</text><line x1="50" x2="50" y1="70" y2="100" stroke="#000" stroke-width="2"/><text x="45" y="117" font-family="Verdana">6</text></g></g><g transform="translate(490, 150)"><g transform="translate(300, 20)"><rect width="100" height="50" x="0" y="0" fill="#EFF0F3"/><text x="25" y="30" font-family="Verdana">Do(3)</text></g><line x1="350" x2="230" y1="80" y2="140" stroke="#000"/><g transform="translate(180, 150)"><rect width="100" height="50" x="0" y="0" fill="#EFF0F3"/><text x="25" y="30" font-family="Verdana">Do(2)</text></g><g transform="translate(-120, 130)"><g transform="translate(300, 20)"><rect width="100" height="50" x="0" y="0" fill="#EFF0F3"/><text x="25" y="30" font-family="Verdana">Do(2)</text></g><line x1="350" x2="320" y1="80" y2="140" stroke="#000"/><g transform="translate(280, 150)"><rect width="100" height="50" x="0" y="0" fill="#EFF0F3"/><text x="25" y="30" font-family="Verdana">Do(1)</text></g><line x1="350" x2="440" y1="80" y2="140" stroke="#000"/><g transform="translate(390, 150)"><rect width="100" height="50" x="0" y="0" fill="#EFF0F3"/><text x="25" y="30" font-family="Verdana">Do(-1)</text></g><line x1="350" x2="550" y1="80" y2="140" stroke="#000"/><g transform="translate(500, 150)"><rect width="100" height="50" x="0" y="0" fill="#EFF0F3"/><text x="15" y="30" font-family="Verdana">printf(n)</text><line x1="50" x2="50" y1="70" y2="100" stroke="#000" stroke-width="2"/><text x="45" y="117" font-family="Verdana">2</text></g></g><line x1="350" x2="350" y1="80" y2="140" stroke="#000"/><g transform="translate(300, 150)"><rect width="100" height="50" x="0" y="0" fill="#EFF0F3"/><text x="25" y="30" font-family="Verdana">Do(0)</text></g><line x1="350" x2="470" y1="80" y2="140" stroke="#000"/><g transform="translate(420, 150)"><rect width="100" height="50" x="0" y="0" fill="#EFF0F3"/><text x="15" y="30" font-family="Verdana">printf(n)</text><line x1="50" x2="50" y1="70" y2="100" stroke="#000" stroke-width="2"/><text x="45" y="117" font-family="Verdana">3</text></g></g><g transform="translate(120, 130)"><g transform="translate(300, 20)"><rect width="100" height="50" x="0" y="0" fill="#EFF0F3"/><text x="25" y="30" font-family="Verdana">Do(5)</text></g><line x1="350" x2="170" y1="80" y2="140" stroke="#000"/><line x1="350" x2="410" y1="80" y2="240" stroke="#000"/><line x1="350" x2="470" y1="80" y2="140" stroke="#000"/><g transform="translate(420, 150)"><rect width="100" height="50" x="0" y="0" fill="#EFF0F3"/><text x="15" y="30" font-family="Verdana">printf(n)</text><line x1="50" x2="50" y1="70" y2="100" stroke="#000" stroke-width="2"/><text x="45" y="117" font-family="Verdana">5</text></g></g><g transform="translate(180, 360)"><g transform="translate(300, 20)"><rect width="100" height="50" x="0" y="0" fill="#EFF0F3"/><text x="25" y="30" font-family="Verdana">Do(2)</text></g><line x1="350" x2="310" y1="80" y2="140" stroke="#000"/><g transform="translate(270, 150)"><rect width="100" height="50" x="0" y="0" fill="#EFF0F3"/><text x="25" y="30" font-family="Verdana">Do(1)</text></g><line x1="350" x2="430" y1="80" y2="140" stroke="#000"/><g transform="translate(380, 150)"><rect width="100" height="50" x="0" y="0" fill="#EFF0F3"/><text x="25" y="30" font-family="Verdana">Do(-1)</text></g><line x1="350" x2="540" y1="80" y2="140" stroke="#000"/><g transform="translate(490, 150)"><rect width="100" height="50" x="0" y="0" fill="#EFF0F3"/><text x="15" y="30" font-family="Verdana">printf(n)</text><line x1="50" x2="50" y1="70" y2="100" stroke="#000" stroke-width="2"/><text x="45" y="117" font-family="Verdana">2</text></g></g><g transform="translate(-120, 260)"><g transform="translate(300, 20)"><rect width="100" height="50" x="0" y="0" fill="#EFF0F3"/><text x="25" y="30" font-family="Verdana">Do(4)</text></g><line x1="350" x2="300" y1="80" y2="200" stroke="#000"/><line x1="350" x2="400" y1="80" y2="140" stroke="#000"/><g transform="translate(360, 150)"><rect width="100" height="50" x="0" y="0" fill="#EFF0F3"/><text x="25" y="30" font-family="Verdana">Do(1)</text></g><line x1="350" x2="520" y1="80" y2="140" stroke="#000"/><g transform="translate(470, 150)"><rect width="100" height="50" x="0" y="0" fill="#EFF0F3"/><text x="15" y="30" font-family="Verdana">printf(n)</text><line x1="50" x2="50" y1="70" y2="100" stroke="#000" stroke-width="2"/><text x="45" y="117" font-family="Verdana">4</text></g></g><g transform="translate(-160, 450)"><g transform="translate(300, 20)"><rect width="100" height="50" x="0" y="0" fill="#EFF0F3"/><text x="25" y="30" font-family="Verdana">Do(3)</text></g><line x1="350" x2="230" y1="80" y2="140" stroke="#000"/><g transform="translate(180, 150)"><rect width="100" height="50" x="0" y="0" fill="#EFF0F3"/><text x="25" y="30" font-family="Verdana">Do(2)</text></g><g transform="translate(-120, 130)"><g transform="translate(300, 20)"><rect width="100" height="50" x="0" y="0" fill="#EFF0F3"/><text x="25" y="30" font-family="Verdana">Do(2)</text></g><line x1="350" x2="310" y1="80" y2="140" stroke="#000"/><g transform="translate(270, 150)"><rect width="100" height="50" x="0" y="0" fill="#EFF0F3"/><text x="25" y="30" font-family="Verdana">Do(1)</text></g><line x1="350" x2="430" y1="80" y2="140" stroke="#000"/><g transform="translate(380, 150)"><rect width="100" height="50" x="0" y="0" fill="#EFF0F3"/><text x="25" y="30" font-family="Verdana">Do(-1)</text></g><line x1="350" x2="540" y1="80" y2="140" stroke="#000"/><g transform="translate(490, 150)"><rect width="100" height="50" x="0" y="0" fill="#EFF0F3"/><text x="15" y="30" font-family="Verdana">printf(n)</text><line x1="50" x2="50" y1="70" y2="100" stroke="#000" stroke-width="2"/><text x="45" y="117" font-family="Verdana">2</text></g></g><line x1="350" x2="350" y1="80" y2="140" stroke="#000"/><g transform="translate(300, 150)"><rect width="100" height="50" x="0" y="0" fill="#EFF0F3"/><text x="25" y="30" font-family="Verdana">Do(0)</text></g><line x1="350" x2="470" y1="80" y2="140" stroke="#000"/><g transform="translate(410, 150)"><rect width="100" height="50" x="0" y="0" fill="#EFF0F3"/><text x="15" y="30" font-family="Verdana">printf(n)</text><line x1="50" x2="50" y1="70" y2="100" stroke="#000" stroke-width="2"/><text x="45" y="117" font-family="Verdana">3</text></g></g></svg>