<svg xmlns="http://www.w3.org/2000/svg" width="800" height="600"><g transform="translate(300, 20)"><rect width="100" height="50" x="0" y="0" fill="#EFF0F3"/><text x="22" y="30" font-family="Verdana">main()</text></g><g transform="translate(420, 30)"><text x="0" y="20" font-family="Verdana">s</text><rect width="120" height="30" x="20" y="0" fill="#EFF0F3"/><text x="30" y="20" font-family="Verdana">0</text><line x1="30" x2="40" y1="20" y2="10" stroke="#000"/><text x="50" y="20" font-family="Verdana">1</text><line x1="50" x2="60" y1="20" y2="10" stroke="#000"/><text x="70" y="20" font-family="Verdana">2</text><line x1="70" x2="80" y1="20" y2="10" stroke="#000"/><text x="90" y="20" font-family="Verdana">3</text><line x1="90" x2="100" y1="20" y2="10" stroke="#000"/><text x="110" y="20" font-family="Verdana">4</text><text x="30" y="50" font-family="Verdana">static memory</text></g><line x1="350" x2="170" y1="80" y2="140" stroke="#000"/><line x1="350" x2="530" y1="80" y2="140" stroke="#000"/><g transform="translate(-180, 130)"><g transform="translate(300, 20)"><rect width="100" height="50" x="0" y="0" fill="#EFF0F3"/><text x="22" y="30" font-family="Verdana">abc()</text></g><line x1="350" x2="230" y1="80" y2="140" stroke="#000"/><g transform="translate(180, 150)"><rect width="100" height="50" x="0" y="0" fill="#EFF0F3"/><text x="22" y="30" font-family="Verdana">printf()</text></g><line x1="350" x2="350" y1="80" y2="140" stroke="#000"/><text x="220" y="90" font-family="Verdana" transform="rotate(270 300,50)">a=1</text><line x1="350" x2="470" y1="80" y2="140" stroke="#000"/><g transform="translate(420, 150)"><rect width="100" height="50" x="0" y="0" fill="#EFF0F3"/><text x="22" y="30" font-family="Verdana">printf()</text></g></g><g transform="translate(180, 130)"><g transform="translate(300, 20)"><rect width="100" height="50" x="0" y="0" fill="#EFF0F3"/><text x="22" y="30" font-family="Verdana">abc()</text></g><line x1="350" x2="230" y1="80" y2="140" stroke="#000"/><g transform="translate(180, 150)"><rect width="100" height="50" x="0" y="0" fill="#EFF0F3"/><text x="22" y="30" font-family="Verdana">printf()</text></g><line x1="350" x2="350" y1="80" y2="140" stroke="#000"/><text x="220" y="90" font-family="Verdana" transform="rotate(270 300,50)">a=4</text><g transform="translate(300, 150)"><rect width="100" height="50" x="0" y="0" fill="#EFF0F3"/></g><line x1="350" x2="470" y1="80" y2="140" stroke="#000"/><g transform="translate(420, 150)"><rect width="100" height="50" x="0" y="0" fill="#EFF0F3"/><text x="22" y="30" font-family="Verdana">printf()</text></g></g><g transform="translate(-180, 260)"><g transform="translate(300, 20)"><rect width="100" height="50" x="0" y="0" fill="#EFF0F3"/><text x="22" y="30" font-family="Verdana">abc()</text></g><line x1="350" x2="230" y1="80" y2="140" stroke="#000"/><g transform="translate(180, 150)"><rect width="100" height="50" x="0" y="0" fill="#EFF0F3"/><text x="22" y="30" font-family="Verdana">printf()</text></g><line x1="350" x2="350" y1="80" y2="140" stroke="#000"/><text x="220" y="90" font-family="Verdana" transform="rotate(270 300,50)">a=2</text><line x1="350" x2="470" y1="80" y2="140" stroke="#000"/><g transform="translate(420, 150)"><rect width="100" height="50" x="0" y="0" fill="#EFF0F3"/><text x="22" y="30" font-family="Verdana">printf()</text></g></g><g transform="translate(-180, 390)"><g transform="translate(300, 20)"><rect width="100" height="50" x="0" y="0" fill="#EFF0F3"/><text x="22" y="30" font-family="Verdana">abc()</text></g><line x1="350" x2="230" y1="80" y2="140" stroke="#000"/><g transform="translate(180, 150)"><rect width="100" height="50" x="0" y="0" fill="#EFF0F3"/><text x="22" y="30" font-family="Verdana">printf()</text></g><line x1="350" x2="350" y1="80" y2="140" stroke="#000"/><text x="220" y="90" font-family="Verdana" transform="rotate(270 300,50)">a=3</text><g transform="translate(300, 150)"><rect width="100" height="50" x="0" y="0" fill="#EFF0F3"/></g><line x1="350" x2="470" y1="80" y2="140" stroke="#000"/><g transform="translate(420, 150)"><rect width="100" height="50" x="0" y="0" fill="#EFF0F3"/><text x="22" y="30" font-family="Verdana">printf()</text></g></g></svg>