<svg xmlns="http://www.w3.org/2000/svg" width="800" height="550"><g transform="translate(300, 20)"><rect width="100" height="50" x="0" y="0" fill="#EFF0F3"/><text x="22" y="30" font-family="Verdana">main()</text></g><g transform="translate(420, 30)"><text x="0" y="20" font-family="Verdana">j</text><rect width="120" height="30" x="20" y="0" fill="#EFF0F3"/><text x="30" y="20" font-family="Verdana">0</text><line x1="30" x2="40" y1="20" y2="10" stroke="#000"/><text x="50" y="20" font-family="Verdana">1</text><line x1="50" x2="60" y1="20" y2="10" stroke="#000"/><text x="70" y="20" font-family="Verdana">3</text><line x1="70" x2="80" y1="20" y2="10" stroke="#000"/><text x="90" y="20" font-family="Verdana">6</text><line x1="90" x2="100" y1="20" y2="10" stroke="#000"/><text x="110" y="20" font-family="Verdana">10</text></g><line x1="350" x2="50" y1="80" y2="180" stroke="#000"/><g transform="translate(0, 200)"><rect width="100" height="50" x="0" y="0" fill="#EFF0F3"/><text x="22" y="30" font-family="Verdana">intcr(1)</text><g transform="translate(0, 80)"><rect width="60" height="30" x="0" y="0" fill="#EFF0F3"/><text x="8" y="20" font-family="Verdana" font-size="12">count =</text><text x="32" y="60" font-family="Verdana" font-size="12">0 +</text><rect width="30" height="30" x="60" y="40" fill="#EFF0F3"/><text x="71" y="59" font-family="Verdana" font-size="12">1</text><line x1="75" x2="75" y1="-20" y2="30" stroke="#000"/></g></g><line x1="350" x2="250" y1="80" y2="180" stroke="#000"/><g transform="translate(200, 200)"><rect width="100" height="50" x="0" y="0" fill="#EFF0F3"/><text x="22" y="30" font-family="Verdana">intcr(2)</text><g transform="translate(0, 80)"><rect width="60" height="30" x="0" y="0" fill="#EFF0F3"/><text x="8" y="20" font-family="Verdana" font-size="12">count =</text><text x="32" y="60" font-family="Verdana" font-size="12">1 +</text><rect width="30" height="30" x="60" y="40" fill="#EFF0F3"/><text x="71" y="59" font-family="Verdana" font-size="12">2</text><line x1="75" x2="75" y1="-20" y2="30" stroke="#000"/></g></g><line x1="350" x2="450" y1="80" y2="180" stroke="#000"/><g transform="translate(400, 200)"><rect width="100" height="50" x="0" y="0" fill="#EFF0F3"/><text x="22" y="30" font-family="Verdana">intcr(3)</text><g transform="translate(0, 80)"><rect width="60" height="30" x="0" y="0" fill="#EFF0F3"/><text x="8" y="20" font-family="Verdana" font-size="12">count =</text><text x="32" y="60" font-family="Verdana" font-size="12">3 +</text><rect width="30" height="30" x="60" y="40" fill="#EFF0F3"/><text x="71" y="59" font-family="Verdana" font-size="12">3</text><line x1="75" x2="75" y1="-20" y2="30" stroke="#000"/></g></g><line x1="350" x2="650" y1="80" y2="180" stroke="#000"/><g transform="translate(600, 200)"><rect width="100" height="50" x="0" y="0" fill="#EFF0F3"/><text x="22" y="30" font-family="Verdana">intcr(4)</text><g transform="translate(0, 80)"><rect width="60" height="30" x="0" y="0" fill="#EFF0F3"/><text x="8" y="20" font-family="Verdana" font-size="12">count =</text><text x="32" y="60" font-family="Verdana" font-size="12">6 +</text><rect width="30" height="30" x="60" y="40" fill="#EFF0F3"/><text x="71" y="59" font-family="Verdana" font-size="12">4</text><line x1="75" x2="75" y1="-20" y2="30" stroke="#000"/></g></g><g transform="translate(260, 400)"><text x="0" y="20" font-family="Verdana">count</text><rect width="120" height="30" x="50" y="0" fill="#EFF0F3"/><text x="60" y="20" font-family="Verdana">0</text><line x1="60" x2="70" y1="20" y2="10" stroke="#000"/><text x="80" y="20" font-family="Verdana">1</text><line x1="80" x2="90" y1="20" y2="10" stroke="#000"/><text x="100" y="20" font-family="Verdana">3</text><line x1="100" x2="110" y1="20" y2="10" stroke="#000"/><text x="120" y="20" font-family="Verdana">6</text><line x1="120" x2="130" y1="20" y2="10" stroke="#000"/><text x="140" y="20" font-family="Verdana">10</text><text x="30" y="50" font-family="Verdana">static memory</text></g></svg>