<svg xmlns="http://www.w3.org/2000/svg" width="800" height="700"><g transform="translate(0, 0)"><g transform="translate(300, 20)"><rect width="100" height="50" x="0" y="0" fill="#EFF0F3"/><text x="5" y="30" font-family="Verdana">recursion()</text></g><g transform="translate(430, 30)"><text x="0" y="20" font-family="Verdana">i</text><rect width="120" height="30" x="20" y="0" fill="#EFF0F3"/><text x="30" y="20" font-family="Verdana">1</text><line x1="30" x2="40" y1="20" y2="10" stroke="#000"/><text x="50" y="20" font-family="Verdana">2</text></g><line x1="350" x2="50" y1="80" y2="180" stroke="#000"/><g transform="translate(0, 200)"><rect width="100" height="50" x="0" y="0" fill="#EFF0F3"/><text x="14" y="30" font-family="Verdana">++i; pf(i)</text><g transform="translate(20, 60)"><rect width="60" height="30" x="0" y="0" fill="#EFF0F3"/><text x="25" y="20" font-family="Verdana" font-size="12">2</text></g></g><line x1="350" x2="350" y1="80" y2="180" stroke="#000"/><line x1="350" x2="650" y1="80" y2="180" stroke="#000"/><g transform="translate(600, 200)"><rect width="100" height="50" x="0" y="0" fill="#EFF0F3"/><text x="17" y="30" font-family="Verdana">printf(i)</text><g transform="translate(20, 60)"><rect width="60" height="30" x="0" y="0" fill="#EFF0F3"/><text x="25" y="20" font-family="Verdana" font-size="12">4</text></g></g></g><g transform="translate(0, 200)"><g transform="translate(300, 20)"><rect width="100" height="50" x="0" y="0" fill="#EFF0F3"/><text x="5" y="30" font-family="Verdana">recursion()</text></g><g transform="translate(430, 30)"><text x="0" y="20" font-family="Verdana">i</text><rect width="120" height="30" x="20" y="0" fill="#EFF0F3"/><text x="30" y="20" font-family="Verdana">2</text><line x1="30" x2="40" y1="20" y2="10" stroke="#000"/><text x="50" y="20" font-family="Verdana">3</text></g><line x1="350" x2="50" y1="80" y2="180" stroke="#000"/><g transform="translate(0, 200)"><rect width="100" height="50" x="0" y="0" fill="#EFF0F3"/><text x="14" y="30" font-family="Verdana">++i; pf(i)</text><g transform="translate(20, 60)"><rect width="60" height="30" x="0" y="0" fill="#EFF0F3"/><text x="25" y="20" font-family="Verdana" font-size="12">3</text></g></g><line x1="350" x2="350" y1="80" y2="180" stroke="#000"/><line x1="350" x2="650" y1="80" y2="180" stroke="#000"/><g transform="translate(600, 200)"><rect width="100" height="50" x="0" y="0" fill="#EFF0F3"/><text x="17" y="30" font-family="Verdana">printf(i)</text><g transform="translate(20, 60)"><rect width="60" height="30" x="0" y="0" fill="#EFF0F3"/><text x="25" y="20" font-family="Verdana" font-size="12">4</text></g></g></g><g transform="translate(0, 400)"><g transform="translate(300, 20)"><rect width="100" height="50" x="0" y="0" fill="#EFF0F3"/><text x="5" y="30" font-family="Verdana">recursion()</text></g><g transform="translate(430, 30)"><text x="0" y="20" font-family="Verdana">i</text><rect width="120" height="30" x="20" y="0" fill="#EFF0F3"/><text x="30" y="20" font-family="Verdana">3</text><line x1="30" x2="40" y1="20" y2="10" stroke="#000"/><text x="50" y="20" font-family="Verdana">4</text></g><line x1="350" x2="50" y1="80" y2="180" stroke="#000"/><g transform="translate(0, 200)"><rect width="100" height="50" x="0" y="0" fill="#EFF0F3"/><text x="14" y="30" font-family="Verdana">++i; pf(i)</text><g transform="translate(20, 60)"><rect width="60" height="30" x="0" y="0" fill="#EFF0F3"/><text x="25" y="20" font-family="Verdana" font-size="12">4</text></g></g><line x1="350" x2="350" y1="80" y2="180" stroke="#000"/><line x1="350" x2="650" y1="80" y2="180" stroke="#000"/><g transform="translate(600, 200)"><rect width="100" height="50" x="0" y="0" fill="#EFF0F3"/><text x="17" y="30" font-family="Verdana">printf(i)</text><g transform="translate(20, 60)"><rect width="60" height="30" x="0" y="0" fill="#EFF0F3"/><text x="25" y="20" font-family="Verdana" font-size="12">4</text></g></g></g><g transform="translate(300, 600)"><rect width="100" height="50" x="0" y="0" fill="#EFF0F3"/></g></svg>