<svg xmlns="http://www.w3.org/2000/svg" width="400" height="750"><g><g transform="translate(100, 200)"><rect width="100" height="50" x="0" y="0" fill="#EFF0F3"/><line x1="0" x2="100" y1="50" y2="50" stroke="#000" stroke-width="2"/><text x="35" y="30" font-family="Verdana">f(3)</text></g><g transform="translate(100, 251)"><rect width="100" height="50" x="0" y="0" fill="#EFF0F3"/><line x1="0" x2="100" y1="50" y2="50" stroke="#000" stroke-width="2"/><text x="35" y="30" font-family="Verdana">f(2)</text></g><g transform="translate(100, 302)"><rect width="100" height="50" x="0" y="0" fill="#EFF0F3"/><line x1="0" x2="100" y1="50" y2="50" stroke="#000" stroke-width="2"/><text x="35" y="30" font-family="Verdana">f(1)</text></g><g transform="translate(100, 353)"><rect width="100" height="50" x="0" y="0" fill="#EFF0F3"/><line x1="0" x2="100" y1="50" y2="50" stroke="#000" stroke-width="2"/><text x="35" y="30" font-family="Verdana">f(0)</text><line x1="10" x2="90" y1="10" y2="40" stroke="#000" stroke-dasharray="5 5" stroke-width="1"/></g><g transform="translate(200, 353)"><rect width="100" height="50" x="0" y="0" fill="#EFF0F3"/><line x1="0" x2="100" y1="50" y2="50" stroke="#000" stroke-width="2"/><text x="35" y="30" font-family="Verdana">f(0)</text><line x1="10" x2="90" y1="10" y2="40" stroke="#000" stroke-dasharray="5 5" stroke-width="1"/></g><g transform="translate(300, 353)"><rect width="100" height="50" x="0" y="0" fill="#EFF0F3"/><line x1="0" x2="100" y1="50" y2="50" stroke="#000" stroke-width="2"/><text x="35" y="30" font-family="Verdana">f(0)</text></g><text x="35" y="30" font-family="Verdana" transform="rotate(270 200,150)">stack</text></g><g><g transform="translate(0, 204) translate(100, 200)"><rect width="100" height="150" x="0" y="0" fill="#EFF0F3"/><line x1="0" x2="100" y1="150" y2="150" stroke="#000" stroke-width="2"/></g><text x="35" y="30" font-family="Verdana" transform="translate(0, 204) rotate(270 200,150)">heap</text></g><g><g transform="translate(0, 355) translate(100, 200)"><rect width="100" height="150" x="0" y="0" fill="#EFF0F3"/><line x1="0" x2="100" y1="150" y2="150" stroke="#000" stroke-width="2"/></g><text x="35" y="30" font-family="Verdana" transform="translate(0, 355) rotate(270 200,150)">static</text></g></svg>