<svg xmlns="http://www.w3.org/2000/svg" width="600" height="900"><g transform="translate(-200, 0)"><g transform="translate(300, 20)"><rect width="100" height="50" x="0" y="0" fill="#EFF0F3"/><text x="35" y="30" font-family="Verdana">f(3)</text></g><g transform="translate(430, 30)"><text x="0" y="20" font-family="Verdana">val</text><rect width="30" height="30" x="30" y="0" fill="#EFF0F3"/><text x="40" y="20" font-family="Verdana">3</text></g><line x1="350" x2="350" y1="80" y2="180" stroke="#000"/><line x1="350" x2="650" y1="80" y2="180" stroke="#000"/><g transform="translate(600, 200)"><rect width="100" height="50" x="0" y="0" fill="#EFF0F3"/><text x="10" y="30" font-family="Verdana">return val</text><g transform="translate(20, 60)"><rect width="60" height="30" x="0" y="0" fill="#EFF0F3"/><text x="10" y="20" font-family="Verdana" font-size="12">never executed</text></g></g></g><g transform="translate(-200, 200)"><g transform="translate(300, 20)"><rect width="100" height="50" x="0" y="0" fill="#EFF0F3"/><text x="35" y="30" font-family="Verdana">f(2)</text></g><g transform="translate(430, 30)"><text x="0" y="20" font-family="Verdana">val</text><rect width="30" height="30" x="30" y="0" fill="#EFF0F3"/><text x="40" y="20" font-family="Verdana">2</text></g><line x1="350" x2="350" y1="80" y2="180" stroke="#000"/><line x1="350" x2="650" y1="80" y2="180" stroke="#000"/><g transform="translate(600, 200)"><rect width="100" height="50" x="0" y="0" fill="#EFF0F3"/><text x="10" y="30" font-family="Verdana">return val</text><g transform="translate(20, 60)"><rect width="60" height="30" x="0" y="0" fill="#EFF0F3"/><text x="10" y="20" font-family="Verdana" font-size="12">never executed</text></g></g></g><g transform="translate(-200, 400)"><g transform="translate(300, 20)"><rect width="100" height="50" x="0" y="0" fill="#EFF0F3"/><text x="35" y="30" font-family="Verdana">f(1)</text></g><g transform="translate(430, 30)"><text x="0" y="20" font-family="Verdana">val</text><rect width="30" height="30" x="30" y="0" fill="#EFF0F3"/><text x="40" y="20" font-family="Verdana">1</text></g><line x1="350" x2="350" y1="80" y2="180" stroke="#000"/><line x1="350" x2="650" y1="80" y2="180" stroke="#000"/><g transform="translate(600, 200)"><rect width="100" height="50" x="0" y="0" fill="#EFF0F3"/><text x="10" y="30" font-family="Verdana">return val</text><g transform="translate(20, 60)"><rect width="60" height="30" x="0" y="0" fill="#EFF0F3"/><text x="10" y="20" font-family="Verdana" font-size="12">never executed</text></g></g></g><g transform="translate(-200, 600)"><g transform="translate(300, 20)"><rect width="100" height="50" x="0" y="0" fill="#EFF0F3"/><text x="35" y="30" font-family="Verdana">f(0)</text></g><g transform="translate(430, 30)"><text x="0" y="20" font-family="Verdana">val</text><rect width="30" height="30" x="30" y="0" fill="#EFF0F3"/><text x="40" y="20" font-family="Verdana">0</text></g><line x1="350" x2="350" y1="80" y2="180" stroke="#000"/><line x1="350" x2="650" y1="80" y2="180" stroke="#000"/><g transform="translate(600, 200)"><rect width="100" height="50" x="0" y="0" fill="#EFF0F3"/><text x="10" y="30" font-family="Verdana">return val</text><g transform="translate(20, 60)"><rect width="60" height="30" x="0" y="0" fill="#EFF0F3"/><text x="10" y="20" font-family="Verdana" font-size="12">executed</text></g></g></g><path fill="none" stroke="#000" d="M 90 650 C -20 600, -20 920, 150 860"/><g transform="translate(100, 800)"><rect width="100" height="50" x="0" y="0" fill="#EFF0F3"/><text x="35" y="30" font-family="Verdana">f(0)</text></g></svg>